<svg width="22" height="131" viewBox="0 0 22 131" fill="none" xmlns="http://www.w3.org/2000/svg">
<path d="M10.6665 109.333C4.77547 109.333 -0.00015809 114.109 -0.000157833 120C-0.000157575 125.891 4.77547 130.667 10.6665 130.667C16.5575 130.667 21.3332 125.891 21.3332 120C21.3332 114.109 16.5575 109.333 10.6665 109.333ZM10.6665 0L8.6665 8.74228e-08L8.6665 5L10.6665 5L12.6665 5L12.6665 -8.74228e-08L10.6665 0ZM10.6665 15L8.6665 15L8.6665 25L10.6665 25L12.6665 25L12.6665 15L10.6665 15ZM10.6665 35L8.66651 35L8.66651 45L10.6665 45L12.6665 45L12.6665 35L10.6665 35ZM10.6665 55L8.66651 55L8.66651 65L10.6665 65L12.6665 65L12.6665 55L10.6665 55ZM10.6665 75L8.66651 75L8.66651 85L10.6665 85L12.6665 85L12.6665 75L10.6665 75ZM10.6665 95L8.66651 95L8.66651 105L10.6665 105L12.6665 105L12.6665 95L10.6665 95ZM10.6665 115L8.66651 115L8.66651 120L10.6665 120L12.6665 120L12.6665 115L10.6665 115Z" fill="#FFCB00"/>
</svg>
