<svg width="150" height="117" viewBox="0 0 150 117" fill="none" xmlns="http://www.w3.org/2000/svg">
<path fill-rule="evenodd" clip-rule="evenodd" d="M132.298 98.0126C134.975 97.8187 138.754 97.3447 141.258 96.4117C141.627 96.274 143.787 95.3298 144.059 95.321L144.545 103.151C142.477 104.215 135.725 104.212 133.405 104.021C132.476 103.944 132.48 103.811 132.46 103.187L132.298 98.0126ZM101.77 39.5715C99.0133 43.4618 102.158 48.2734 106.299 47.6117C110.548 46.9323 111.544 40.723 108.348 38.3894C106.319 36.7962 103.373 37.3093 101.77 39.5715ZM92.9031 8.41033C93.463 6.58854 91.5664 4.7158 89.9045 5.19032C88.8308 5.4968 88.5986 5.88543 88.0278 6.64776C87.5624 7.26925 87.1194 7.88193 86.654 8.49169C85.2334 10.3994 83.8127 12.3073 82.3921 14.215C82.0449 14.7085 81.3439 15.4796 81.1256 16.1555C80.3865 18.443 83.4759 21.3651 86.031 17.9754C87.2171 16.4017 92.5735 9.48287 92.9031 8.41033ZM55.6363 5.40104C53.906 6.18177 53.4012 7.82432 54.6642 9.60157C56.5324 12.0987 58.4003 14.5956 60.2685 17.0925C61.125 18.2395 62.2027 20.1074 64.2903 19.4198C64.9969 19.1869 65.6652 18.5732 65.8888 17.8066C66.449 15.8866 65.1005 14.8802 63.9572 13.2948C63.4916 12.6493 63.0012 12.0491 62.5204 11.3945C61.6192 10.1678 60.7358 8.96434 59.7078 7.66241C58.8551 6.58241 57.6501 4.49255 55.6363 5.40104ZM126.618 45.3308C126.843 42.7046 124.799 40.3781 122.376 40.1541C119.387 39.8772 117.403 41.9604 116.993 44.6165C116.2 49.745 121.814 51.9576 125.113 48.8808C126.273 47.7986 126.483 46.9091 126.618 45.3308ZM70.905 3.29865C70.9047 6.9657 70.9044 10.633 70.9042 14.3001C70.913 18.0933 76.1483 17.8047 76.1283 14.3001C76.128 10.5589 76.1275 6.81766 76.1272 3.07646C76.1312 -0.335069 72.8376 -0.644213 71.4974 0.858831C70.8823 1.54887 70.9095 2.21224 70.905 3.29865ZM23.3547 87.531C23.9144 84.1681 20.6143 82.9555 18.8409 84.7674C17.982 85.645 17.8401 87.0632 17.6551 88.3334C16.6567 95.1836 14.722 106.425 13.7169 113.241C13.062 117.284 18.4711 118.693 19.2547 113.623C20.375 106.372 22.1481 94.7827 23.3547 87.531ZM130.545 92.5931C129.86 91.1141 130.622 85.1555 131.032 83.5167C131.71 80.8072 132.825 78.8886 135.252 77.6344C136.242 77.1233 136.416 77.5154 136.957 78.0583C139.402 80.5165 140.447 82.5943 141.589 85.9653C141.841 86.7108 142.638 89.1691 142.666 89.8644C140.487 91.3403 133.486 92.7724 130.545 92.5931ZM91.7011 96.4207C91.8118 93.7281 93.1246 73.3293 93.5061 71.914C93.7407 71.0437 94.6768 69.925 95.6395 69.6175C96.3269 69.3979 97.5719 69.5655 98.5695 69.7415C103.664 70.6404 128.265 73.7326 129.997 74.6406C129.872 74.9842 128.495 76.0807 127.738 77.3095C126.858 78.7382 126.041 80.939 125.572 82.688C125.422 83.3783 125.272 84.0688 125.122 84.7591C124.724 88.0082 123.379 94.3685 122.725 97.6362C122.464 98.9424 122.049 100.336 121.848 101.749C121.45 104.551 119.863 107.15 116.757 106.782C114.137 106.472 110.761 105.673 108.095 105.353C106.636 105.101 105.177 104.85 103.718 104.598C101.146 104.119 97.521 103.734 95.3869 102.811C92.6822 101.642 91.6941 99.247 91.7011 96.4207ZM20.4272 43.4146C20.3864 35.8004 26.4899 29.5426 34.5567 29.5754C44.8768 29.6173 51.3847 40.125 47.2676 49.2625C45.011 54.2709 40.4272 57.3571 34.4456 57.4221C26.3816 57.5096 20.4684 51.1619 20.4272 43.4146ZM135.947 41.7761C134.154 42.867 132.881 44.7862 132.267 47.1897C131.524 50.0992 131.887 52.4769 133.092 54.7156C133.442 55.3656 133.01 55.638 132.56 56.1464C129.357 59.7614 125.585 60.1212 121.042 59.2375C119.652 58.9673 118.371 58.8913 117.049 58.639C113.343 57.9313 104.216 56.7377 101.831 55.9215C98.2753 54.7041 96.0277 52.722 96.0415 48.3041C96.3645 45.5906 96.6877 42.8769 97.0106 40.1634C98.164 35.3312 98.6424 31.598 104.204 29.4298C106.556 28.5125 109.575 28.9174 112.338 29.39C117.198 30.2212 123.39 30.6261 127.861 31.8424C132.452 33.0909 136.149 37.1248 135.947 41.7761ZM124.739 25.8435C124.717 25.0073 125.141 23.9142 125.422 23.1018C125.815 21.9633 127.556 22.5499 128.28 20.3853C128.739 19.0143 128.573 17.7684 127.877 16.7092C125.085 12.4639 118.25 15.7631 120.202 20.4019C120.483 21.0682 120.934 21.3285 121.118 21.7116C121.326 22.1455 120.502 24.7806 120.296 25.1823C119.475 25.3061 116.445 24.7227 115.42 24.6395C110.186 24.2146 106.36 22.986 101.38 25.3565C94.5927 28.5871 92.5594 34.9957 91.5144 42.3501C91.4013 43.1452 91.3342 43.9129 91.1931 44.6712C91.0427 45.4799 91.0514 46.2748 90.9417 47.1636C90.544 50.3913 91.3576 53.5993 92.8707 55.7748C97.5381 62.4861 105.46 61.775 107.364 62.7501C107.365 63.7792 107.076 64.4191 106.933 65.3655C104.6 65.2121 101.694 64.4495 99.3378 64.1516C97.1139 63.8704 94.7327 63.1353 92.7346 62.2388C90.7746 61.3597 89.1287 60.2679 87.6857 58.7505C84.2073 55.0927 84.8337 49.7173 84.2983 44.9059C83.8271 40.6704 83.8479 33.4785 82.2675 29.8376C80.3418 25.4021 75.8714 23.4864 70.9643 24.193C68.536 24.5427 66.954 25.8782 65.6391 27.4389C64.2733 29.0598 63.654 31.3326 63.3167 33.6746C62.9618 36.1379 62.3572 38.4712 62.0233 40.9004C61.5598 43.333 61.0963 45.7656 60.6327 48.1985C60.0979 50.3324 59.7076 53.0037 58.55 54.6788C56.4382 57.7345 49.5152 59.5253 46.0959 59.3154C47.3283 58.285 48.1662 57.46 48.754 56.8102C50.5221 54.8564 52.074 52.2275 52.8706 49.7413C56.2941 39.0575 50.6105 27.553 39.6801 24.5072C35.5465 23.3554 29.4771 23.9417 25.7812 25.8353C20.6125 28.4834 16.7014 34.1325 15.5856 39.7942C13.939 48.1499 17.6852 55.8351 24.4181 60.3463C24.8023 60.6037 25.2274 60.7544 26.0094 61.2116C25.2487 61.4389 24.0555 61.6661 23.2948 61.8931C13.6248 65.3513 8.06365 72.6678 5.36027 82.3721C4.75245 84.7199 4.1449 87.0674 3.53708 89.4152C2.46361 95.4728 1.08477 106.397 0.0831831 112.357C-0.784218 117.518 5.40474 119.096 5.98673 112.666C6.55169 106.425 8.94063 90.9044 10.5631 85.0662C10.9792 83.5692 11.3184 81.9088 11.8905 80.4783C17.74 65.8544 29.2481 65.5471 44.0954 65.4418C50.8464 65.3937 58.034 63.7395 62.1098 59.7982C64.5611 57.4277 65.1987 55.6553 66.2338 52.0445C67.1249 48.9357 68.8009 40.747 69.1992 37.2085C69.3762 35.6343 69.8395 33.8031 70.0514 32.1889C70.5296 28.5415 76.0274 29.7184 76.1757 33.6321C76.2452 35.4729 76.1898 37.7142 76.0394 39.5238C75.886 41.365 75.8501 43.2108 75.6499 45.0361C75.2518 48.6682 75.0082 51.9298 74.2162 55.3683C72.7468 61.7456 70.2934 66.8944 66.281 71.0858C64.5877 72.8545 62.2823 74.6377 59.7161 76.4042C55.7872 79.1084 55.7944 79.142 55.845 83.9752L56.71 113.886C56.7699 115.951 58.3221 117.159 60.3745 116.796C62.2435 116.465 62.5025 115.045 62.4527 113.389C62.1644 103.822 61.5135 91.9618 61.256 82.3876C62.7941 81.4527 64.3811 80.2185 65.8071 79.1676C68.995 76.8179 71.2854 74.7046 73.7721 71.5881C74.4177 70.7788 76.841 66.5506 77.0109 66.4231C79.2579 72.5956 86.7882 76.6344 88.1178 77.863C88.1692 78.0254 86.7877 92.9375 86.7033 94.2471C86.2805 97.8264 86.6868 101.574 88.8377 104.157C91.0578 106.824 91.8733 106.877 94.648 108.221L94.6779 113.534C94.6946 115.773 94.2378 117.029 96.7811 117L122.931 116.811C124.55 116.574 123.942 113.894 124.062 112.41C125.231 111.892 126.593 111.498 127.686 110.714C128.057 110.45 128.295 110.054 128.675 110.034L128.725 114.643C128.74 116.03 130.306 116.873 131.518 116.851C133.08 116.823 133.856 115.805 133.902 114.35L134.058 109.419L144.367 108.953L144.533 114.486C144.593 116.473 146.868 117.324 148.479 116.609C149.925 115.968 149.983 114.464 149.993 112.722C150.004 110.899 150.004 107.912 149.972 106.088C149.851 99.3623 149.08 92.6022 147.485 86.7748C145.118 78.1319 140.93 71.0885 132.21 69.2625C130.73 68.9522 129.114 68.6308 127.608 68.4444C126.044 68.1907 124.481 67.9368 122.917 67.6831C122.883 67.1817 123.323 65.3996 123.521 65.0838C124.14 64.8795 125.431 65.0521 126.112 64.9334C126.917 64.7933 127.57 64.6957 128.372 64.5175C132.232 63.6589 135.77 60.8505 137.787 57.6323C142.083 57.3987 143.706 54.7081 144.717 50.9688C145.451 48.2556 145.248 45.0081 143.301 42.9254C142.675 42.4381 142.049 41.9505 141.423 41.4629C141.412 41.4421 140.794 37.5241 139.582 35.1997C136.576 29.4348 131.258 27.0356 124.739 25.8435Z" fill="#000E1A"/>
</svg>
