<svg width="645" height="640" viewBox="0 0 645 640" fill="none" xmlns="http://www.w3.org/2000/svg">
<path d="M274.36 630L278.656 623.208L274.696 616.968H277.072L278.824 619.824C279.208 620.568 279.664 621.264 280.096 622.008H280.216C280.6 621.264 280.96 620.568 281.368 619.824L282.976 616.968H285.256L281.296 623.424L285.592 630H283.192L281.272 626.952C280.84 626.16 280.36 625.368 279.856 624.624H279.736C279.28 625.368 278.872 626.16 278.416 626.952L276.664 630H274.36Z" fill="black"/>
<path d="M588.112 302V300.176H592.048V287.552H588.904V286.16C590.464 285.872 591.592 285.464 592.552 284.888H594.232V300.176H597.76V302H588.112ZM602.649 302.312C601.761 302.312 601.065 301.64 601.065 300.656C601.065 299.648 601.761 298.976 602.649 298.976C603.513 298.976 604.233 299.648 604.233 300.656C604.233 301.64 603.513 302.312 602.649 302.312ZM612.664 302.312C609.232 302.312 607.192 299.12 607.192 293.384C607.192 287.648 609.232 284.576 612.664 284.576C616.072 284.576 618.136 287.672 618.136 293.384C618.136 299.12 616.072 302.312 612.664 302.312ZM612.664 300.536C614.656 300.536 616.024 298.4 616.024 293.384C616.024 288.368 614.656 286.328 612.664 286.328C610.672 286.328 609.304 288.368 609.304 293.384C609.304 298.4 610.672 300.536 612.664 300.536ZM625.593 302.312C622.833 302.312 621.153 301.16 619.953 299.984L621.057 298.544C622.041 299.552 623.337 300.488 625.377 300.488C627.465 300.488 629.121 298.976 629.121 296.6C629.121 294.224 627.681 292.808 625.473 292.808C624.297 292.808 623.553 293.192 622.545 293.864L621.369 293.12L621.945 284.888H630.489V286.784H623.865L623.409 291.872C624.201 291.416 624.993 291.176 626.049 291.176C628.953 291.176 631.353 292.832 631.353 296.528C631.353 300.224 628.545 302.312 625.593 302.312ZM632.977 302L637.273 295.208L633.313 288.968H635.689L637.441 291.824C637.825 292.568 638.281 293.264 638.713 294.008H638.833C639.217 293.264 639.577 292.568 639.985 291.824L641.593 288.968H643.873L639.913 295.424L644.209 302H641.809L639.889 298.952C639.457 298.16 638.977 297.368 638.473 296.624H638.353C637.897 297.368 637.489 298.16 637.033 298.952L635.281 302H632.977Z" fill="black"/>
<line x1="590" y1="557" y2="557" stroke="#FFCB00" stroke-width="4" stroke-dasharray="8 8"/>
<line y1="28" x2="590" y2="28" stroke="#FFCB00" stroke-width="4" stroke-dasharray="8 8"/>
<line x1="28" y1="630" x2="28" y2="-8.74228e-08" stroke="#FFCB00" stroke-width="4" stroke-dasharray="8 8"/>
<line x1="532" y1="8.74228e-08" x2="532" y2="630" stroke="#FFCB00" stroke-width="4" stroke-dasharray="8 8"/>
<path d="M508.266 553.974V441.499H529.994V553.974H508.266Z" fill="#000E1A"/>
<path d="M442.699 553.974L453.563 441.499H491.715L502.387 553.974H481.107L479.509 535.825H465.961L464.555 553.974H442.699ZM467.559 517.867H477.783L472.863 460.671H471.84L467.559 517.867Z" fill="#000E1A"/>
<path d="M350.424 553.974V441.499H373.046V491.154L384.038 458.115H407.747L393.368 499.782L411.645 553.974H387.297L373.046 508.792V553.974H350.424Z" fill="#000E1A"/>
<path d="M314.57 554.996C295.654 554.996 286.196 545.41 286.196 526.239V518.634H309.202V529.881C309.202 532.054 309.628 533.758 310.48 534.994C311.333 536.229 312.696 536.847 314.57 536.847C317.894 536.847 319.555 534.355 319.555 529.37C319.555 525.195 318.682 522.085 316.935 520.04C315.188 517.952 313.058 515.95 310.544 514.032L298.338 504.638C294.504 501.656 291.586 498.503 289.583 495.18C287.581 491.857 286.58 487.234 286.58 481.312C286.58 475.816 287.879 471.279 290.478 467.7C293.119 464.122 296.592 461.459 300.895 459.712C305.24 457.965 309.927 457.092 314.954 457.092C333.529 457.092 342.817 466.358 342.817 484.891V486.68H319.172V483.038C319.172 481.121 318.831 479.267 318.149 477.478C317.51 475.689 316.232 474.794 314.315 474.794C311.077 474.794 309.458 476.498 309.458 479.906C309.458 483.357 310.821 486.063 313.548 488.022L327.735 498.375C332.166 501.571 335.872 505.362 338.855 509.751C341.879 514.139 343.392 519.976 343.392 527.261C343.392 536.293 340.814 543.174 335.659 547.903C330.547 552.632 323.517 554.996 314.57 554.996Z" fill="#000E1A"/>
<path d="M251.24 554.996C244.423 554.996 238.991 553.718 234.944 551.162C230.897 548.606 228 544.921 226.253 540.106C224.506 535.292 223.633 529.498 223.633 522.724V484.188C223.633 475.284 226.189 468.552 231.301 463.994C236.414 459.392 243.444 457.092 252.39 457.092C270.795 457.092 279.998 466.124 279.998 484.188V491.154C279.998 499.59 279.912 505.256 279.742 508.153H246.511V526.686C246.511 528.39 246.618 530.073 246.831 531.734C247.044 533.353 247.512 534.695 248.237 535.761C249.003 536.826 250.218 537.358 251.879 537.358C254.265 537.358 255.756 536.336 256.353 534.291C256.949 532.203 257.247 529.498 257.247 526.175V516.972H279.998V522.404C279.998 529.562 279.103 535.569 277.314 540.426C275.567 545.24 272.585 548.883 268.367 551.354C264.192 553.782 258.483 554.996 251.24 554.996ZM246.383 496.778H257.247V483.869C257.247 480.418 256.821 477.947 255.969 476.455C255.117 474.922 253.839 474.155 252.135 474.155C250.303 474.155 248.876 474.879 247.853 476.328C246.873 477.776 246.383 480.29 246.383 483.869V496.778Z" fill="#000E1A"/>
<path d="M160.239 553.974V441.499H191.17C199.264 441.499 205.357 443.757 209.447 448.273C213.537 452.747 215.582 459.308 215.582 467.956V520.615C215.582 531.266 213.707 539.489 209.958 545.283C206.251 551.077 199.733 553.974 190.403 553.974H160.239ZM182.862 534.099H186.76C190.893 534.099 192.959 532.097 192.959 528.092V470.065C192.959 466.316 192.448 463.909 191.425 462.844C190.445 461.736 188.422 461.182 185.354 461.182H182.862V534.099Z" fill="#000E1A"/>
<path d="M122.662 554.996C103.575 554.996 94.0322 545.091 94.0322 525.28V486.808C94.0322 477.776 96.5672 470.576 101.637 465.208C106.707 459.797 113.715 457.092 122.662 457.092C131.651 457.092 138.681 459.797 143.751 465.208C148.821 470.576 151.356 477.776 151.356 486.808V525.28C151.356 545.091 141.791 554.996 122.662 554.996ZM122.662 537.358C124.579 537.358 125.942 536.677 126.752 535.313C127.604 533.907 128.03 532.139 128.03 530.009V483.166C128.03 477.584 126.241 474.794 122.662 474.794C119.083 474.794 117.294 477.584 117.294 483.166V530.009C117.294 532.139 117.699 533.907 118.508 535.313C119.36 536.677 120.745 537.358 122.662 537.358Z" fill="#000E1A"/>
<path d="M30 553.974V441.499H53.1339L63.4866 495.372V441.499H85.2145V553.974H63.231L51.9836 497.737V553.974H30Z" fill="#000E1A"/>
<path fill-rule="evenodd" clip-rule="evenodd" d="M470.992 356.709C479.917 356.062 492.512 354.482 500.862 351.372C502.092 350.914 509.292 347.766 510.195 347.737L511.818 373.837C504.923 377.384 482.417 377.373 474.684 376.735C471.588 376.481 471.599 376.038 471.535 373.957L470.992 356.709ZM369.235 161.905C360.044 174.873 370.528 190.911 384.33 188.706C398.492 186.441 401.813 165.743 391.159 157.965C384.398 152.654 374.578 154.364 369.235 161.905ZM339.677 58.0344C341.543 51.9618 335.221 45.7193 329.682 47.3011C326.103 48.3227 325.329 49.6181 323.426 52.1592C321.875 54.2308 320.398 56.2731 318.847 58.3056C314.111 64.6646 309.376 71.0244 304.64 77.3833C303.483 79.0282 301.146 81.5986 300.419 83.8516C297.955 91.4766 308.253 101.217 316.77 89.918C320.724 84.6723 338.578 61.6096 339.677 58.0344ZM215.454 48.0035C209.687 50.6059 208.004 56.0811 212.214 62.0052C218.441 70.3291 224.668 78.6521 230.895 86.9751C233.75 90.7982 237.342 97.0247 244.301 94.7326C246.656 93.9564 248.884 91.9105 249.629 89.3552C251.497 82.9554 247.002 79.6008 243.191 74.3159C241.639 72.1642 240.004 70.1637 238.401 67.9818C235.397 63.8928 232.453 59.8811 229.026 55.5414C226.184 51.9414 222.167 44.9752 215.454 48.0035ZM452.06 181.103C452.809 172.349 445.995 164.594 437.921 163.847C427.955 162.924 421.344 169.868 419.975 178.722C417.334 195.817 436.046 203.192 447.043 192.936C450.909 189.329 451.61 186.364 452.06 181.103ZM266.35 40.9955C266.349 53.219 266.348 65.4434 266.347 77.6669C266.377 90.311 283.828 89.349 283.761 77.6669C283.76 65.1962 283.758 52.7255 283.757 40.2549C283.771 28.8831 272.792 27.8526 268.325 32.8628C266.274 35.1629 266.365 37.3741 266.35 40.9955ZM107.849 321.77C109.715 310.56 98.7145 306.518 92.8031 312.558C89.9402 315.483 89.4672 320.211 88.8504 324.445C85.5224 347.279 79.0733 384.749 75.7231 407.469C73.54 420.948 91.5704 425.643 94.1822 408.742C97.9166 384.574 103.827 345.942 107.849 321.77ZM465.15 338.644C462.865 333.714 465.405 313.852 466.772 308.389C469.032 299.357 472.75 292.962 480.841 288.781C484.138 287.078 484.721 288.385 486.522 290.194C494.673 298.388 498.156 305.314 501.963 316.551C502.804 319.036 505.459 327.23 505.554 329.548C498.292 334.468 474.953 339.241 465.15 338.644ZM335.67 351.402C336.039 342.427 340.415 274.431 341.687 269.714C342.469 266.812 345.589 263.083 348.798 262.058C351.09 261.326 355.24 261.885 358.565 262.472C375.548 265.468 457.55 275.775 463.322 278.802C462.908 279.947 458.317 283.602 455.793 287.698C452.859 292.461 450.135 299.797 448.573 305.627C448.073 307.928 447.573 310.229 447.074 312.53C445.748 323.361 441.263 344.562 439.084 355.454C438.212 359.808 436.83 364.455 436.161 369.163C434.834 378.504 429.545 387.167 419.192 385.94C410.456 384.905 399.203 382.242 390.318 381.175C385.454 380.337 380.59 379.498 375.726 378.66C367.154 377.063 355.07 375.779 347.956 372.704C338.941 368.806 335.647 360.824 335.67 351.402ZM98.0906 174.715C97.9548 149.335 118.3 128.475 145.189 128.585C179.589 128.724 201.282 163.75 187.559 194.208C180.037 210.903 164.757 221.19 144.819 221.407C117.939 221.699 98.2281 200.54 98.0906 174.715ZM483.157 169.254C477.182 172.89 472.936 179.287 470.891 187.299C468.414 196.997 469.622 204.923 473.64 212.385C474.806 214.552 473.366 215.46 471.866 217.155C461.19 229.205 448.617 230.404 433.472 227.458C428.841 226.558 424.569 226.304 420.162 225.463C407.811 223.104 377.385 219.126 369.438 216.405C357.584 212.347 350.092 205.74 350.138 191.014C351.215 181.969 352.292 172.923 353.369 163.878C357.213 147.771 358.808 135.327 377.345 128.099C385.187 125.042 395.249 126.391 404.459 127.967C420.661 130.737 441.3 132.087 456.204 136.141C471.505 140.303 483.83 153.749 483.157 169.254ZM445.798 116.145C445.723 113.358 447.138 109.714 448.072 107.006C449.382 103.211 455.186 105.166 457.602 97.9512C459.132 93.3811 458.578 89.2281 456.255 85.6974C446.949 71.5463 424.166 82.5437 430.674 98.0063C431.609 100.227 433.115 101.095 433.726 102.372C434.419 103.818 431.672 112.602 430.986 113.941C428.249 114.354 418.15 112.409 414.733 112.132C397.288 110.715 384.532 106.62 367.932 114.522C345.309 125.29 338.531 146.652 335.048 171.167C334.671 173.817 334.447 176.376 333.977 178.904C333.476 181.6 333.505 184.249 333.139 187.212C331.813 197.971 334.525 208.664 339.569 215.916C355.127 238.287 381.534 235.917 387.879 239.167C387.885 242.597 386.92 244.73 386.443 247.885C378.666 247.374 368.98 244.832 361.126 243.839C353.713 242.901 345.776 240.451 339.115 237.463C332.582 234.532 327.096 230.893 322.286 225.835C310.691 213.643 312.779 195.724 310.994 179.686C309.424 165.568 309.493 141.595 304.225 129.459C297.806 114.674 282.905 108.288 266.548 110.643C258.453 111.809 253.18 116.261 248.797 121.463C244.244 126.866 242.18 134.442 241.056 142.249C239.873 150.46 237.857 158.237 236.744 166.335C235.199 174.443 233.654 182.552 232.109 190.662C230.326 197.775 229.025 206.679 225.167 212.263C218.127 222.448 195.051 228.418 183.653 227.718C187.761 224.283 190.554 221.533 192.513 219.368C198.407 212.855 203.58 204.092 206.235 195.804C217.647 160.192 198.702 121.843 162.267 111.691C148.488 107.851 128.257 109.806 115.937 116.118C98.7083 124.945 85.6715 143.775 81.9522 162.647C76.4632 190.5 88.9507 216.117 111.394 231.154C112.674 232.012 114.091 232.515 116.698 234.039C114.162 234.796 110.185 235.554 107.649 236.31C75.416 247.838 56.8788 272.226 47.8676 304.574C45.8415 312.4 43.8163 320.225 41.7903 328.051C38.212 348.243 33.6159 384.658 30.2773 404.523C27.3859 421.728 48.0158 426.985 49.9558 405.553C51.839 384.751 59.8021 333.015 65.2103 313.554C66.5974 308.564 67.728 303.029 69.6351 298.261C89.1335 249.515 127.494 248.49 176.985 248.139C199.488 247.979 223.447 242.465 237.033 229.327C245.204 221.426 247.329 215.518 250.779 203.482C253.75 193.119 259.336 165.823 260.664 154.028C261.254 148.781 262.798 142.677 263.505 137.296C265.099 125.138 283.425 129.061 283.919 142.107C284.151 148.243 283.966 155.714 283.465 161.746C282.953 167.883 282.834 174.036 282.166 180.12C280.839 192.227 280.027 203.099 277.387 214.561C272.489 235.819 264.311 252.981 250.937 266.953C245.292 272.849 237.608 278.792 229.054 284.681C215.957 293.695 215.981 293.807 216.15 309.917L219.033 409.62C219.233 416.503 224.407 420.53 231.248 419.319C237.478 418.217 238.342 413.485 238.176 407.963C237.215 376.072 235.045 336.539 234.187 304.625C239.314 301.509 244.604 297.395 249.357 293.892C259.983 286.06 267.618 279.015 275.907 268.627C278.059 265.929 286.137 251.835 286.703 251.41C294.193 271.985 319.294 285.448 323.726 289.543C323.897 290.085 319.292 339.792 319.011 344.157C317.602 356.088 318.956 368.579 326.126 377.19C333.526 386.08 336.244 386.257 345.493 390.735L345.593 408.447C345.649 415.911 344.126 420.095 352.604 419.998L439.771 419.371C445.167 418.581 443.14 409.647 443.539 404.7C447.437 402.973 451.975 401.659 455.621 399.048C456.855 398.165 457.65 396.845 458.915 396.778L459.082 412.145C459.132 416.767 464.353 419.575 468.394 419.504C473.602 419.412 476.186 416.017 476.338 411.165L476.859 394.73L511.224 393.178L511.777 411.619C511.975 418.242 519.559 421.079 524.929 418.697C529.749 416.558 529.944 411.547 529.978 405.741C530.015 399.663 530.015 389.705 529.905 383.627C529.503 361.208 526.934 338.674 521.617 319.25C513.728 290.44 499.767 266.962 470.701 260.875C465.766 259.841 460.38 258.769 455.36 258.148C450.148 257.302 444.937 256.456 439.725 255.61C439.61 253.939 441.078 247.999 441.738 246.946C443.799 246.265 448.103 246.84 450.372 246.445C453.055 245.978 455.234 245.652 457.906 245.058C470.772 242.196 482.567 232.835 489.289 222.108C503.611 221.329 509.019 212.36 512.391 199.896C514.836 190.852 514.161 180.027 507.67 173.085C505.584 171.46 503.496 169.835 501.409 168.21C501.372 168.14 499.313 155.08 495.273 147.332C485.254 128.116 467.527 120.119 445.798 116.145Z" fill="#000E1A"/>
<rect x="550" y="30" width="26" height="524" fill="white"/>
<rect x="550" y="30" width="26" height="524" fill="#FFCB00" fill-opacity="0.3"/>
<rect x="530" y="574" width="26" height="500" transform="rotate(90 530 574)" fill="white"/>
<rect x="530" y="574" width="26" height="500" transform="rotate(90 530 574)" fill="#FFCB00" fill-opacity="0.3"/>
</svg>
