<svg width="400" height="400" viewBox="0 0 400 400" fill="none" xmlns="http://www.w3.org/2000/svg">
<rect x="0.5" y="0.5" width="399" height="399" fill="black"/>
<rect x="0.5" y="0.5" width="399" height="399" stroke="black"/>
<path d="M291.317 304.591V259.644H300V304.591H291.317Z" fill="white"/>
<path d="M265.115 304.591L269.457 259.644H284.703L288.968 304.591H280.464L279.825 297.338H274.411L273.849 304.591H265.115ZM275.05 290.162H279.136L277.169 267.305H276.761L275.05 290.162Z" fill="white"/>
<path d="M228.24 304.591V259.644H237.281V279.487L241.673 266.284H251.148L245.402 282.934L252.706 304.591H242.976L237.281 286.535V304.591H228.24Z" fill="white"/>
<path d="M213.912 305C206.353 305 202.573 301.169 202.573 293.507V290.468H211.767V294.963C211.767 295.831 211.937 296.512 212.278 297.006C212.618 297.5 213.163 297.747 213.912 297.747C215.24 297.747 215.904 296.751 215.904 294.759C215.904 293.09 215.555 291.847 214.857 291.03C214.159 290.196 213.308 289.396 212.303 288.63L207.425 284.875C205.893 283.684 204.727 282.424 203.927 281.096C203.127 279.768 202.726 277.921 202.726 275.554C202.726 273.358 203.246 271.545 204.284 270.114C205.34 268.684 206.727 267.62 208.447 266.922C210.184 266.224 212.056 265.875 214.065 265.875C221.488 265.875 225.2 269.578 225.2 276.984V277.699H215.751V276.244C215.751 275.477 215.615 274.737 215.342 274.022C215.087 273.307 214.576 272.949 213.81 272.949C212.516 272.949 211.869 273.63 211.869 274.992C211.869 276.371 212.414 277.452 213.504 278.236L219.173 282.373C220.944 283.65 222.425 285.165 223.617 286.919C224.825 288.672 225.43 291.005 225.43 293.916C225.43 297.525 224.4 300.275 222.34 302.165C220.297 304.055 217.487 305 213.912 305Z" fill="white"/>
<path d="M188.605 305C185.881 305 183.71 304.489 182.092 303.467C180.475 302.446 179.317 300.973 178.619 299.049C177.921 297.125 177.572 294.81 177.572 292.103V276.703C177.572 273.145 178.594 270.455 180.637 268.633C182.68 266.794 185.489 265.875 189.064 265.875C196.419 265.875 200.097 269.484 200.097 276.703V279.487C200.097 282.858 200.063 285.122 199.995 286.28H186.715V293.686C186.715 294.367 186.757 295.04 186.843 295.704C186.928 296.351 187.115 296.887 187.404 297.313C187.711 297.738 188.196 297.951 188.86 297.951C189.814 297.951 190.409 297.542 190.648 296.725C190.886 295.891 191.005 294.81 191.005 293.482V289.804H200.097V291.975C200.097 294.835 199.739 297.236 199.024 299.177C198.326 301.101 197.134 302.557 195.449 303.544C193.78 304.514 191.499 305 188.605 305ZM186.664 281.734H191.005V276.576C191.005 275.196 190.835 274.209 190.495 273.613C190.154 273 189.643 272.694 188.962 272.694C188.23 272.694 187.66 272.983 187.251 273.562C186.86 274.141 186.664 275.145 186.664 276.576V281.734Z" fill="white"/>
<path d="M152.238 304.591V259.644H164.599C167.834 259.644 170.268 260.546 171.903 262.351C173.537 264.138 174.354 266.76 174.354 270.216V291.26C174.354 295.516 173.605 298.802 172.107 301.118C170.626 303.433 168.021 304.591 164.292 304.591H152.238ZM161.279 296.649H162.837C164.488 296.649 165.314 295.848 165.314 294.248V271.059C165.314 269.561 165.109 268.599 164.701 268.173C164.309 267.731 163.501 267.509 162.275 267.509H161.279V296.649Z" fill="white"/>
<path d="M137.222 305C129.595 305 125.781 301.041 125.781 293.124V277.75C125.781 274.141 126.794 271.264 128.82 269.118C130.846 266.956 133.647 265.875 137.222 265.875C140.815 265.875 143.624 266.956 145.65 269.118C147.676 271.264 148.689 274.141 148.689 277.75V293.124C148.689 301.041 144.867 305 137.222 305ZM137.222 297.951C137.988 297.951 138.533 297.679 138.857 297.134C139.197 296.572 139.367 295.865 139.367 295.014V276.295C139.367 274.064 138.652 272.949 137.222 272.949C135.792 272.949 135.077 274.064 135.077 276.295V295.014C135.077 295.865 135.239 296.572 135.562 297.134C135.903 297.679 136.456 297.951 137.222 297.951Z" fill="white"/>
<path d="M100.192 304.591V259.644H109.437L113.574 281.172V259.644H122.257V304.591H113.472L108.977 282.117V304.591H100.192Z" fill="white"/>
<path fill-rule="evenodd" clip-rule="evenodd" d="M276.23 225.392C279.796 225.134 284.83 224.504 288.166 223.262C288.658 223.079 291.535 221.823 291.896 221.811L292.545 232.228C289.789 233.644 280.795 233.639 277.705 233.385C276.468 233.283 276.472 233.107 276.446 232.276L276.23 225.392ZM235.565 147.644C231.893 152.82 236.082 159.221 241.597 158.341C247.257 157.437 248.584 149.176 244.326 146.072C241.625 143.952 237.701 144.635 235.565 147.644ZM223.753 106.189C224.499 103.765 221.973 101.274 219.759 101.905C218.329 102.313 218.019 102.83 217.259 103.844C216.639 104.671 216.049 105.486 215.429 106.297C213.537 108.835 211.644 111.373 209.752 113.911C209.29 114.568 208.356 115.593 208.065 116.493C207.08 119.536 211.196 123.423 214.599 118.914C216.179 116.82 223.314 107.616 223.753 106.189ZM174.111 102.185C171.807 103.224 171.134 105.409 172.817 107.774C175.305 111.096 177.793 114.417 180.282 117.739C181.423 119.265 182.858 121.75 185.639 120.835C186.58 120.526 187.471 119.709 187.768 118.689C188.515 116.135 186.718 114.796 185.196 112.687C184.575 111.828 183.922 111.03 183.281 110.159C182.081 108.527 180.904 106.926 179.535 105.194C178.399 103.757 176.794 100.977 174.111 102.185ZM268.664 155.306C268.963 151.813 266.24 148.717 263.014 148.419C259.031 148.051 256.389 150.822 255.842 154.356C254.787 161.179 262.265 164.122 266.659 160.029C268.204 158.589 268.484 157.406 268.664 155.306ZM194.45 99.3884C194.45 104.267 194.45 109.146 194.449 114.024C194.461 119.071 201.435 118.687 201.408 114.024C201.408 109.047 201.407 104.07 201.407 99.0928C201.412 94.5542 197.025 94.143 195.239 96.1426C194.42 97.0606 194.456 97.9431 194.45 99.3884ZM131.11 211.448C131.856 206.974 127.46 205.361 125.097 207.771C123.953 208.939 123.764 210.826 123.518 212.515C122.188 221.629 119.611 236.583 118.272 245.651C117.399 251.031 124.605 252.905 125.649 246.159C127.141 236.513 129.503 221.095 131.11 211.448ZM273.895 218.182C272.982 216.215 273.997 208.288 274.543 206.107C275.446 202.503 276.932 199.95 280.165 198.282C281.483 197.602 281.716 198.124 282.436 198.846C285.693 202.116 287.085 204.88 288.606 209.365C288.942 210.357 290.003 213.627 290.041 214.552C287.139 216.516 277.813 218.421 273.895 218.182ZM222.152 223.274C222.3 219.692 224.048 192.555 224.557 190.672C224.869 189.514 226.116 188.026 227.398 187.616C228.314 187.324 229.973 187.547 231.301 187.781C238.088 188.977 270.858 193.091 273.165 194.299C272.999 194.756 271.164 196.215 270.156 197.85C268.983 199.75 267.895 202.678 267.27 205.005C267.071 205.923 266.871 206.842 266.671 207.76C266.142 212.083 264.349 220.544 263.478 224.891C263.13 226.629 262.578 228.484 262.31 230.363C261.78 234.091 259.666 237.548 255.529 237.059C252.038 236.646 247.541 235.583 243.991 235.157C242.047 234.822 240.103 234.488 238.159 234.153C234.734 233.516 229.905 233.003 227.062 231.776C223.459 230.22 222.143 227.034 222.152 223.274ZM127.21 152.757C127.156 142.628 135.286 134.302 146.032 134.346C159.779 134.402 168.448 148.381 162.964 160.537C159.958 167.2 153.852 171.306 145.884 171.392C135.142 171.509 127.265 163.064 127.21 152.757ZM281.091 150.577C278.703 152.029 277.006 154.582 276.189 157.779C275.2 161.65 275.682 164.813 277.288 167.792C277.754 168.656 277.178 169.019 276.579 169.695C272.313 174.504 267.288 174.983 261.236 173.807C259.385 173.448 257.678 173.347 255.917 173.011C250.981 172.07 238.822 170.482 235.646 169.396C230.909 167.776 227.916 165.139 227.934 159.262C228.364 155.652 228.795 152.042 229.225 148.432C230.761 142.003 231.399 137.037 238.806 134.152C241.94 132.932 245.961 133.471 249.642 134.099C256.116 135.205 264.364 135.744 270.32 137.362C276.435 139.023 281.36 144.389 281.091 150.577ZM266.161 129.381C266.132 128.269 266.697 126.815 267.07 125.734C267.594 124.219 269.913 125 270.879 122.12C271.49 120.296 271.269 118.638 270.341 117.229C266.622 111.581 257.517 115.971 260.118 122.142C260.491 123.028 261.093 123.375 261.337 123.884C261.614 124.462 260.516 127.967 260.242 128.502C259.149 128.666 255.113 127.89 253.747 127.779C246.776 127.214 241.678 125.58 235.045 128.733C226.004 133.031 223.296 141.557 221.904 151.341C221.753 152.399 221.663 153.42 221.476 154.429C221.275 155.505 221.287 156.562 221.141 157.745C220.611 162.039 221.695 166.306 223.71 169.201C229.927 178.129 240.48 177.183 243.016 178.48C243.018 179.849 242.633 180.701 242.442 181.96C239.334 181.756 235.464 180.741 232.325 180.345C229.363 179.971 226.191 178.993 223.529 177.8C220.918 176.631 218.726 175.178 216.803 173.159C212.17 168.293 213.004 161.142 212.291 154.741C211.664 149.106 211.691 139.539 209.586 134.695C207.021 128.794 201.066 126.245 194.529 127.185C191.295 127.651 189.187 129.427 187.436 131.504C185.616 133.66 184.792 136.684 184.342 139.799C183.869 143.076 183.064 146.181 182.619 149.412C182.002 152.649 181.384 155.885 180.767 159.121C180.055 161.96 179.535 165.514 177.993 167.743C175.18 171.808 165.958 174.19 161.403 173.911C163.045 172.54 164.161 171.443 164.944 170.578C167.299 167.979 169.366 164.481 170.427 161.174C174.988 146.961 167.417 131.655 152.857 127.603C147.35 126.071 139.266 126.851 134.342 129.37C127.457 132.893 122.247 140.409 120.761 147.941C118.568 159.057 123.558 169.281 132.527 175.282C133.038 175.625 133.605 175.825 134.646 176.434C133.633 176.736 132.044 177.038 131.03 177.34C118.149 181.941 110.741 191.674 107.14 204.585C106.331 207.708 105.521 210.831 104.712 213.955C103.282 222.013 101.445 236.547 100.111 244.475C98.9554 251.342 107.199 253.44 107.975 244.886C108.727 236.584 111.91 215.936 114.071 208.169C114.625 206.177 115.077 203.968 115.839 202.065C123.631 182.61 138.961 182.201 158.738 182.061C167.731 181.997 177.305 179.797 182.735 174.553C186 171.4 186.849 169.042 188.228 164.238C189.415 160.102 191.648 149.208 192.178 144.501C192.414 142.406 193.031 139.97 193.313 137.823C193.95 132.971 201.274 134.536 201.471 139.743C201.564 142.192 201.49 145.174 201.29 147.581C201.085 150.03 201.038 152.486 200.771 154.914C200.241 159.746 199.916 164.085 198.861 168.66C196.904 177.144 193.636 183.994 188.291 189.57C186.035 191.923 182.964 194.295 179.546 196.645C174.312 200.243 174.322 200.287 174.389 206.717L175.542 246.509C175.621 249.257 177.689 250.864 180.423 250.381C182.913 249.941 183.258 248.052 183.191 245.848C182.807 233.12 181.94 217.342 181.597 204.605C183.646 203.362 185.76 201.72 187.66 200.322C191.906 197.196 194.957 194.384 198.27 190.238C199.13 189.161 202.358 183.536 202.584 183.367C205.577 191.578 215.608 196.951 217.379 198.586C217.447 198.802 215.607 218.64 215.495 220.383C214.932 225.145 215.473 230.13 218.338 233.567C221.295 237.114 222.382 237.185 226.078 238.972L226.118 246.041C226.14 249.02 225.531 250.69 228.919 250.652L263.753 250.401C265.909 250.086 265.1 246.52 265.259 244.546C266.816 243.857 268.63 243.332 270.087 242.29C270.58 241.938 270.898 241.411 271.403 241.384L271.47 247.517C271.49 249.362 273.577 250.483 275.191 250.454C277.272 250.417 278.305 249.063 278.366 247.126L278.574 240.567L292.307 239.948L292.528 247.308C292.607 249.951 295.638 251.083 297.784 250.132C299.71 249.279 299.788 247.279 299.802 244.961C299.816 242.535 299.816 238.561 299.773 236.136C299.612 227.188 298.585 218.194 296.46 210.442C293.308 198.944 287.728 189.573 276.113 187.144C274.141 186.731 271.989 186.304 269.983 186.056C267.9 185.718 265.817 185.38 263.735 185.043C263.689 184.376 264.275 182.005 264.539 181.585C265.363 181.313 267.083 181.543 267.99 181.385C269.062 181.199 269.932 181.069 271 180.832C276.142 179.689 280.855 175.953 283.542 171.672C289.265 171.361 291.426 167.782 292.773 162.807C293.751 159.197 293.481 154.877 290.887 152.106C290.053 151.458 289.219 150.809 288.385 150.161C288.37 150.133 287.547 144.921 285.933 141.828C281.929 134.159 274.845 130.967 266.161 129.381Z" fill="white"/>
</svg>
