<svg width="1680" height="40" viewBox="0 0 1680 40" fill="none" xmlns="http://www.w3.org/2000/svg">
<rect width="1680" height="40" fill="white"/>
<rect width="1680" height="40" fill="#FFCB00" fill-opacity="0.3"/>
<mask id="path-1-inside-1_1_142" fill="white">
<path d="M0 0H840V40H0V0Z"/>
</mask>
<path d="M0 0H840V40H0V0Z" fill="white"/>
<path d="M0 0H840V40H0V0Z" fill="#FFCB00" fill-opacity="0.3"/>
<path d="M840 0H836V40H840H844V0H840Z" fill="#FFCB00" mask="url(#path-1-inside-1_1_142)"/>
<path d="M409.668 26.182C408.058 26.182 407.078 25.51 406.378 24.824L407.022 23.984C407.596 24.572 408.352 25.118 409.542 25.118C410.76 25.118 411.726 24.194 411.726 22.696C411.726 21.226 410.886 20.358 409.598 20.358C408.912 20.358 408.478 20.568 407.89 20.96L407.204 20.526L407.54 15.738H412.524V16.83H408.66L408.394 19.798C408.856 19.546 409.318 19.392 409.934 19.392C411.628 19.392 413.028 20.4 413.028 22.668C413.028 24.908 411.39 26.182 409.668 26.182ZM417.658 26.182C415.698 26.182 414.466 24.418 414.466 20.834C414.466 17.278 415.698 15.556 417.658 15.556C419.604 15.556 420.85 17.278 420.85 20.834C420.85 24.418 419.604 26.182 417.658 26.182ZM417.658 25.146C418.82 25.146 419.618 23.844 419.618 20.834C419.618 17.838 418.82 16.564 417.658 16.564C416.496 16.564 415.698 17.838 415.698 20.834C415.698 23.844 416.496 25.146 417.658 25.146ZM424.401 22.024C423.001 22.024 422.077 20.834 422.077 18.762C422.077 16.718 423.001 15.556 424.401 15.556C425.815 15.556 426.739 16.718 426.739 18.762C426.739 20.834 425.815 22.024 424.401 22.024ZM424.401 21.24C425.213 21.24 425.759 20.4 425.759 18.762C425.759 17.124 425.213 16.34 424.401 16.34C423.589 16.34 423.043 17.124 423.043 18.762C423.043 20.4 423.589 21.24 424.401 21.24ZM424.695 26.182L430.365 15.556H431.233L425.563 26.182H424.695ZM431.555 26.182C430.155 26.182 429.231 25.006 429.231 22.934C429.231 20.876 430.155 19.714 431.555 19.714C432.955 19.714 433.879 20.876 433.879 22.934C433.879 25.006 432.955 26.182 431.555 26.182ZM431.555 25.398C432.353 25.398 432.927 24.572 432.927 22.934C432.927 21.296 432.353 20.498 431.555 20.498C430.743 20.498 430.183 21.296 430.183 22.934C430.183 24.572 430.743 25.398 431.555 25.398Z" fill="black"/>
<mask id="path-4-inside-2_1_142" fill="white">
<path d="M840 0H1260V40H840V0Z"/>
</mask>
<path d="M840 0H1260V40H840V0Z" fill="white"/>
<path d="M840 0H1260V40H840V0Z" fill="#FFCB00" fill-opacity="0.3"/>
<path d="M1260 0H1256V40H1260H1264V0H1260Z" fill="#FFCB00" mask="url(#path-4-inside-2_1_142)"/>
<path d="M1036.62 26V25.188C1039.88 22.43 1041.32 20.372 1041.32 18.622C1041.32 17.446 1040.7 16.592 1039.43 16.592C1038.59 16.592 1037.88 17.096 1037.3 17.782L1036.59 17.082C1037.41 16.172 1038.3 15.556 1039.58 15.556C1041.42 15.556 1042.58 16.746 1042.58 18.566C1042.58 20.652 1040.9 22.71 1038.46 24.992C1039.01 24.95 1039.63 24.894 1040.14 24.894H1043.07V26H1036.62ZM1047.43 26.182C1045.82 26.182 1044.84 25.51 1044.14 24.824L1044.79 23.984C1045.36 24.572 1046.12 25.118 1047.31 25.118C1048.53 25.118 1049.49 24.194 1049.49 22.696C1049.49 21.226 1048.65 20.358 1047.36 20.358C1046.68 20.358 1046.24 20.568 1045.66 20.96L1044.97 20.526L1045.31 15.738H1050.29V16.83H1046.43L1046.16 19.798C1046.62 19.546 1047.08 19.392 1047.7 19.392C1049.39 19.392 1050.79 20.4 1050.79 22.668C1050.79 24.908 1049.16 26.182 1047.43 26.182ZM1054.4 22.024C1053 22.024 1052.08 20.834 1052.08 18.762C1052.08 16.718 1053 15.556 1054.4 15.556C1055.82 15.556 1056.74 16.718 1056.74 18.762C1056.74 20.834 1055.82 22.024 1054.4 22.024ZM1054.4 21.24C1055.21 21.24 1055.76 20.4 1055.76 18.762C1055.76 17.124 1055.21 16.34 1054.4 16.34C1053.59 16.34 1053.04 17.124 1053.04 18.762C1053.04 20.4 1053.59 21.24 1054.4 21.24ZM1054.7 26.182L1060.37 15.556H1061.23L1055.56 26.182H1054.7ZM1061.56 26.182C1060.16 26.182 1059.23 25.006 1059.23 22.934C1059.23 20.876 1060.16 19.714 1061.56 19.714C1062.96 19.714 1063.88 20.876 1063.88 22.934C1063.88 25.006 1062.96 26.182 1061.56 26.182ZM1061.56 25.398C1062.35 25.398 1062.93 24.572 1062.93 22.934C1062.93 21.296 1062.35 20.498 1061.56 20.498C1060.74 20.498 1060.18 21.296 1060.18 22.934C1060.18 24.572 1060.74 25.398 1061.56 25.398Z" fill="black"/>
<mask id="path-7-inside-3_1_142" fill="white">
<path d="M1260 0H1512V40H1260V0Z"/>
</mask>
<path d="M1260 0H1512V40H1260V0Z" fill="white"/>
<path d="M1260 0H1512V40H1260V0Z" fill="#FFCB00" fill-opacity="0.3"/>
<path d="M1512 0H1508V40H1512H1516V0H1512Z" fill="#FFCB00" mask="url(#path-7-inside-3_1_142)"/>
<path d="M1373.23 26V24.936H1375.53V17.278H1373.69V16.466C1374.6 16.298 1375.26 16.06 1375.82 15.738H1376.8V24.936H1378.86V26H1373.23ZM1383.43 26.182C1381.82 26.182 1380.84 25.51 1380.14 24.824L1380.79 23.984C1381.36 24.572 1382.12 25.118 1383.31 25.118C1384.53 25.118 1385.49 24.194 1385.49 22.696C1385.49 21.226 1384.65 20.358 1383.36 20.358C1382.68 20.358 1382.24 20.568 1381.66 20.96L1380.97 20.526L1381.31 15.738H1386.29V16.83H1382.43L1382.16 19.798C1382.62 19.546 1383.08 19.392 1383.7 19.392C1385.39 19.392 1386.79 20.4 1386.79 22.668C1386.79 24.908 1385.16 26.182 1383.43 26.182ZM1390.4 22.024C1389 22.024 1388.08 20.834 1388.08 18.762C1388.08 16.718 1389 15.556 1390.4 15.556C1391.82 15.556 1392.74 16.718 1392.74 18.762C1392.74 20.834 1391.82 22.024 1390.4 22.024ZM1390.4 21.24C1391.21 21.24 1391.76 20.4 1391.76 18.762C1391.76 17.124 1391.21 16.34 1390.4 16.34C1389.59 16.34 1389.04 17.124 1389.04 18.762C1389.04 20.4 1389.59 21.24 1390.4 21.24ZM1390.7 26.182L1396.37 15.556H1397.23L1391.56 26.182H1390.7ZM1397.56 26.182C1396.16 26.182 1395.23 25.006 1395.23 22.934C1395.23 20.876 1396.16 19.714 1397.56 19.714C1398.96 19.714 1399.88 20.876 1399.88 22.934C1399.88 25.006 1398.96 26.182 1397.56 26.182ZM1397.56 25.398C1398.35 25.398 1398.93 24.572 1398.93 22.934C1398.93 21.296 1398.35 20.498 1397.56 20.498C1396.74 20.498 1396.18 21.296 1396.18 22.934C1396.18 24.572 1396.74 25.398 1397.56 25.398Z" fill="black"/>
<mask id="path-10-inside-4_1_142" fill="white">
<path d="M1512 0H1596V40H1512V0Z"/>
</mask>
<path d="M1512 0H1596V40H1512V0Z" fill="white"/>
<path d="M1512 0H1596V40H1512V0Z" fill="#FFCB00" fill-opacity="0.3"/>
<path d="M1596 0H1592V40H1596H1600V0H1596Z" fill="#FFCB00" mask="url(#path-10-inside-4_1_142)"/>
<path d="M1547.67 26.182C1546.06 26.182 1545.08 25.51 1544.38 24.824L1545.02 23.984C1545.6 24.572 1546.35 25.118 1547.54 25.118C1548.76 25.118 1549.73 24.194 1549.73 22.696C1549.73 21.226 1548.89 20.358 1547.6 20.358C1546.91 20.358 1546.48 20.568 1545.89 20.96L1545.2 20.526L1545.54 15.738H1550.52V16.83H1546.66L1546.39 19.798C1546.86 19.546 1547.32 19.392 1547.93 19.392C1549.63 19.392 1551.03 20.4 1551.03 22.668C1551.03 24.908 1549.39 26.182 1547.67 26.182ZM1554.64 22.024C1553.24 22.024 1552.31 20.834 1552.31 18.762C1552.31 16.718 1553.24 15.556 1554.64 15.556C1556.05 15.556 1556.97 16.718 1556.97 18.762C1556.97 20.834 1556.05 22.024 1554.64 22.024ZM1554.64 21.24C1555.45 21.24 1555.99 20.4 1555.99 18.762C1555.99 17.124 1555.45 16.34 1554.64 16.34C1553.82 16.34 1553.28 17.124 1553.28 18.762C1553.28 20.4 1553.82 21.24 1554.64 21.24ZM1554.93 26.182L1560.6 15.556H1561.47L1555.8 26.182H1554.93ZM1561.79 26.182C1560.39 26.182 1559.47 25.006 1559.47 22.934C1559.47 20.876 1560.39 19.714 1561.79 19.714C1563.19 19.714 1564.11 20.876 1564.11 22.934C1564.11 25.006 1563.19 26.182 1561.79 26.182ZM1561.79 25.398C1562.59 25.398 1563.16 24.572 1563.16 22.934C1563.16 21.296 1562.59 20.498 1561.79 20.498C1560.98 20.498 1560.42 21.296 1560.42 22.934C1560.42 24.572 1560.98 25.398 1561.79 25.398Z" fill="black"/>
<mask id="path-13-inside-5_1_142" fill="white">
<path d="M1595 0H1645V40H1595V0Z"/>
</mask>
<path d="M1595 0H1645V40H1595V0Z" fill="white"/>
<path d="M1595 0H1645V40H1595V0Z" fill="#FFCB00" fill-opacity="0.3"/>
<path d="M1645 0H1641V40H1645H1649V0H1645Z" fill="#FFCB00" mask="url(#path-13-inside-5_1_142)"/>
<path d="M1613.68 26.182C1612.09 26.182 1611.08 25.51 1610.41 24.768L1611.06 23.942C1611.67 24.558 1612.44 25.118 1613.6 25.118C1614.83 25.118 1615.68 24.39 1615.68 23.214C1615.68 21.968 1614.87 21.156 1612.49 21.156V20.176C1614.62 20.176 1615.33 19.322 1615.33 18.216C1615.33 17.236 1614.68 16.592 1613.6 16.592C1612.77 16.592 1612.06 16.998 1611.47 17.586L1610.78 16.774C1611.55 16.074 1612.46 15.556 1613.64 15.556C1615.38 15.556 1616.64 16.494 1616.64 18.118C1616.64 19.364 1615.91 20.204 1614.82 20.582V20.652C1616.02 20.946 1616.99 21.842 1616.99 23.256C1616.99 25.09 1615.52 26.182 1613.68 26.182ZM1620.64 22.024C1619.24 22.024 1618.31 20.834 1618.31 18.762C1618.31 16.718 1619.24 15.556 1620.64 15.556C1622.05 15.556 1622.97 16.718 1622.97 18.762C1622.97 20.834 1622.05 22.024 1620.64 22.024ZM1620.64 21.24C1621.45 21.24 1621.99 20.4 1621.99 18.762C1621.99 17.124 1621.45 16.34 1620.64 16.34C1619.82 16.34 1619.28 17.124 1619.28 18.762C1619.28 20.4 1619.82 21.24 1620.64 21.24ZM1620.93 26.182L1626.6 15.556H1627.47L1621.8 26.182H1620.93ZM1627.79 26.182C1626.39 26.182 1625.47 25.006 1625.47 22.934C1625.47 20.876 1626.39 19.714 1627.79 19.714C1629.19 19.714 1630.11 20.876 1630.11 22.934C1630.11 25.006 1629.19 26.182 1627.79 26.182ZM1627.79 25.398C1628.59 25.398 1629.16 24.572 1629.16 22.934C1629.16 21.296 1628.59 20.498 1627.79 20.498C1626.98 20.498 1626.42 21.296 1626.42 22.934C1626.42 24.572 1626.98 25.398 1627.79 25.398Z" fill="black"/>
<path d="M1653.62 26V25.188C1656.88 22.43 1658.32 20.372 1658.32 18.622C1658.32 17.446 1657.7 16.592 1656.43 16.592C1655.59 16.592 1654.88 17.096 1654.3 17.782L1653.59 17.082C1654.41 16.172 1655.3 15.556 1656.58 15.556C1658.42 15.556 1659.58 16.746 1659.58 18.566C1659.58 20.652 1657.9 22.71 1655.46 24.992C1656.01 24.95 1656.63 24.894 1657.14 24.894H1660.07V26H1653.62ZM1663.64 22.024C1662.24 22.024 1661.31 20.834 1661.31 18.762C1661.31 16.718 1662.24 15.556 1663.64 15.556C1665.05 15.556 1665.97 16.718 1665.97 18.762C1665.97 20.834 1665.05 22.024 1663.64 22.024ZM1663.64 21.24C1664.45 21.24 1664.99 20.4 1664.99 18.762C1664.99 17.124 1664.45 16.34 1663.64 16.34C1662.82 16.34 1662.28 17.124 1662.28 18.762C1662.28 20.4 1662.82 21.24 1663.64 21.24ZM1663.93 26.182L1669.6 15.556H1670.47L1664.8 26.182H1663.93ZM1670.79 26.182C1669.39 26.182 1668.47 25.006 1668.47 22.934C1668.47 20.876 1669.39 19.714 1670.79 19.714C1672.19 19.714 1673.11 20.876 1673.11 22.934C1673.11 25.006 1672.19 26.182 1670.79 26.182ZM1670.79 25.398C1671.59 25.398 1672.16 24.572 1672.16 22.934C1672.16 21.296 1671.59 20.498 1670.79 20.498C1669.98 20.498 1669.42 21.296 1669.42 22.934C1669.42 24.572 1669.98 25.398 1670.79 25.398Z" fill="black"/>
</svg>
